<svg width="24" height="24" viewBox="0 0 24 24" fill="none" xmlns="http://www.w3.org/2000/svg">
<path d="M18.2222 4.77778H14.5067C14.1333 3.74667 13.1556 3 12 3C10.8444 3 9.86667 3.74667 9.49333 4.77778H5.77778C4.8 4.77778 4 5.57778 4 6.55556V19C4 19.9778 4.8 20.7778 5.77778 20.7778H18.2222C19.2 20.7778 20 19.9778 20 19V6.55556C20 5.57778 19.2 4.77778 18.2222 4.77778ZM12 4.55556C12.3644 4.55556 12.6667 4.85778 12.6667 5.22222C12.6667 5.58667 12.3644 5.88889 12 5.88889C11.6356 5.88889 11.3333 5.58667 11.3333 5.22222C11.3333 4.85778 11.6356 4.55556 12 4.55556ZM9.24444 17.2222H8C7.75111 17.2222 7.55556 17.0267 7.55556 16.7778V15.5067C7.55556 15.3911 7.6 15.2756 7.68889 15.1956L12.8533 10.0311L14.7378 11.9156L9.55556 17.0978C9.47206 17.1783 9.36041 17.2229 9.24444 17.2222ZM16.3111 10.3511L15.3689 11.2933L13.4844 9.40889L14.4267 8.46667C14.6044 8.28889 14.88 8.28889 15.0578 8.46667L16.3111 9.72C16.4889 9.89778 16.4889 10.1733 16.3111 10.3511Z" fill="#001E60"/>
</svg>
