<svg width="24" height="24" viewBox="0 0 24 24" fill="none" xmlns="http://www.w3.org/2000/svg">
<path d="M4.74598 6.52816L6.81391 4.46214C6.95979 4.31562 7.13317 4.19937 7.32411 4.12006C7.51504 4.04075 7.71977 3.99995 7.92652 4C8.34787 4 8.74398 4.16505 9.04106 4.46214L11.2663 6.68738C11.4128 6.83325 11.529 7.00664 11.6083 7.19758C11.6876 7.38852 11.7285 7.59325 11.7284 7.8C11.7284 8.22136 11.5634 8.61748 11.2663 8.91456L9.63911 10.5417C10.02 11.3813 10.5495 12.145 11.2022 12.7961C11.8532 13.4504 12.6169 13.9818 13.4565 14.365L15.0837 12.7379C15.2296 12.5913 15.4029 12.4751 15.5939 12.3958C15.7848 12.3165 15.9895 12.2757 16.1963 12.2757C16.6176 12.2757 17.0138 12.4408 17.3108 12.7379L19.538 14.9612C19.6847 15.1073 19.801 15.281 19.8803 15.4723C19.9597 15.6636 20.0004 15.8687 20.0001 16.0757C20.0001 16.4971 19.8351 16.8932 19.538 17.1903L17.4739 19.2544C17.0002 19.7301 16.3458 20 15.674 20C15.5322 20 15.3963 19.9883 15.2623 19.965C12.6449 19.534 10.0488 18.1417 7.9537 16.0485C5.86053 13.9573 4.47026 11.3631 4.03337 8.73786C3.90133 7.93592 4.16735 7.11068 4.74598 6.52816Z" fill="#001E60"/>
</svg>
