<svg width="24" height="24" viewBox="0 0 24 24" fill="none" xmlns="http://www.w3.org/2000/svg">
<path d="M5.25012 3C4.65338 3 4.08109 3.23705 3.65913 3.65901C3.23718 4.08097 3.00012 4.65326 3.00012 5.25L3.00012 18.75C3.00012 19.3467 3.23718 19.919 3.65913 20.341C4.08109 20.7629 4.65338 21 5.25012 21H18.7501C19.3469 21 19.9192 20.7629 20.3411 20.341C20.7631 19.919 21.0001 19.3467 21.0001 18.75V5.25C21.0001 4.65326 20.7631 4.08097 20.3411 3.65901C19.9192 3.23705 19.3469 3 18.7501 3H5.25012ZM9.18312 9.78713C9.14686 9.78762 9.11088 9.7807 9.07737 9.76681C9.04387 9.75292 9.01356 9.73234 8.98829 9.70633C8.96301 9.68032 8.94331 9.64942 8.93039 9.61554C8.91746 9.58165 8.91159 9.54548 8.91312 9.50925C9.01887 7.60237 10.5792 6.9375 12.0057 6.9375C13.5762 6.9375 15.0117 7.75875 15.0117 9.4575C15.0117 10.6725 14.2974 11.2507 13.6122 11.7716C12.7831 12.4005 12.476 12.6356 12.476 13.4434V13.5615C12.476 13.6361 12.4464 13.7076 12.3936 13.7604C12.3409 13.8131 12.2693 13.8427 12.1947 13.8427H11.2835C11.2097 13.8428 11.1388 13.8137 11.0862 13.762C11.0336 13.7102 11.0034 13.6398 11.0022 13.566L10.9977 13.3219C10.955 12.279 11.5546 11.6366 12.3117 11.0865C12.9755 10.587 13.3974 10.2585 13.3974 9.54413C13.3974 8.616 12.6909 8.23013 11.9191 8.23013C11.0157 8.23013 10.5095 8.76788 10.4094 9.50588C10.3891 9.66 10.2654 9.78713 10.1101 9.78713H9.182H9.18312ZM11.7987 17.0355C11.1417 17.0355 10.6636 16.5922 10.6636 15.9926C10.6636 15.3716 11.1417 14.9351 11.7999 14.9351C12.485 14.9351 12.9564 15.3716 12.9564 15.9926C12.9564 16.5922 12.4839 17.0355 11.7987 17.0355Z" fill="#001E60"/>
</svg>
